inDegrees=yes
name=ik_lifting_orientations
DataType=double
version=3
OpenSimVersion=4.5-2024-01-10-34fd6af
endheader
time	pelvis_tilt	pelvis_list	pelvis_rotation	pelvis_tx	pelvis_ty	pelvis_tz	hip_flexion_r	hip_adduction_r	hip_rotation_r	knee_angle_r	knee_angle_r_beta	ankle_angle_r	subtalar_angle_r	mtp_angle_r	hip_flexion_l	hip_adduction_l	hip_rotation_l	knee_angle_l	knee_angle_l_beta	ankle_angle_l	subtalar_angle_l	mtp_angle_l	lumbar_extension	lumbar_bending	lumbar_rotation	arm_flex_r	arm_add_r	arm_rot_r	elbow_flex_r	pro_sup_r	wrist_flex_r	wrist_dev_r	arm_flex_l	arm_add_l	arm_rot_l	elbow_flex_l	pro_sup_l	wrist_flex_l	wrist_dev_l
6.71	0.002804281734596072	0.001313867571451039	-175.6197458113986	0	0.9400000003403366	0	34.2971769056724	-9.842263851490664	0	45.94162513421174	0.8018326223089767	-4.974224125271802	0	0	34.2971769056724	-9.842263851490664	0	45.94162513421174	0.8018326223089767	-4.974224125271802	0	0	-0.00265623049277696	0.001232514147431122	-0.002725111097906166	-18.73876390207436	-16.58635728395687	8.707735161473748	0.02765608754406761	-20.19179467439314	0	0	0	-7.471593469022797	0	60.77699570591657	20.19158432612645	0	0
6.72	0.003855941700120781	0.02195252668186244	-175.5953046887001	0	0.9400000003403366	0	34.2988590764102	-9.842348628634541	0	45.9434239547309	0.8018640176496884	-4.974242192434663	0	0	34.2988590764102	-9.842348628634541	0	45.9434239547309	0.8018640176496884	-4.974242192434663	0	0	0.01054467183580528	0.03939384165696724	-0.04366501117892997	-18.64664977946507	-16.05034821794788	8.311285601909733	0.02748947802278482	-20.18951706738432	0	0	0	-7.472190506557337	0	60.77926688911948	20.18930671912669	0	0
6.73	0.004467655329598813	0.02555628720272676	-175.5953594635676	0	0.9400000003403366	0	34.3006656863236	-9.842439660154758	0	45.94535560575653	0.8018977313200852	-4.974261590033836	0	0	34.3006656863236	-9.842439660154758	0	45.94535560575653	0.8018977313200852	-4.974261590033836	0	0	0.01153786596558546	0.04162975382251816	-0.04344798264648467	-18.55708387934306	-15.48961869366349	7.915902019723783	0.02739735620271476	-20.18707099873734	0	0	0	-7.472831690182767	0	60.78170607722625	20.18686065048945	0	0
6.74	-0.002374545125279521	-0.001354544928795275	-175.6215239559787	0	0.9400000003403366	0	34.30484994618799	-9.842651181157088	0	45.94981616270066	0.8019755827252328	-4.974306684147016	0	0	34.30484994618799	-9.842651181157088	0	45.94981616270066	0.8019755827252328	-4.974306684147016	0	0	-0.003633694881493094	-0.001400659419649879	0.002147149911683035	-18.62196039515314	-14.70487819213073	6.907822515916614	0.02917532708406119	-20.18141120102292	0	0	0	-7.474313331335647	0	60.78735597824016	20.18120085279758	0	0
6.75	0.006086083039453368	0.005779996526920204	-175.6278845804783	0	0.9400000003403366	0	34.30776889652765	-9.842798300329562	0	45.95293338059036	0.8020299884409102	-4.974338024391317	0	0	34.30776889652765	-9.842798300329562	0	45.95293338059036	0.8020299884409102	-4.974338024391317	0	0	0.01244170486813817	0.01181104151406301	0.006483693767539813	-17.92196656047278	-14.18714863353152	6.713762350372853	0.02888234430438593	-20.17746024096378	0	0	0	-7.475348553143095	0	60.79129705406721	20.17724989275417	0	0
6.76	0.00688218626128047	0.009186580320849905	-175.633364946826	0	0.9400000003403366	0	34.31054207293333	-9.842937941799308	0	45.95589568072031	0.8020816903316101	-4.974367761553341	0	0	34.31054207293333	-9.842937941799308	0	45.95589568072031	0.8020816903316101	-4.974367761553341	0	0	0.02244469760137521	0.01567347952621857	0.01319903405063954	-16.92561588506185	-13.60982594452697	6.664280672017997	0.02639201900026658	-20.17370605776823	0	0	0	-7.476332390023266	0	60.79504123054382	20.17349570957358	0	0
6.77	0.004558577278604438	0.005921937706149145	-175.6318640586593	0	0.9400000003403366	0	34.31344230340791	-9.843083893654873	0	45.95899372334496	0.8021357613757775	-4.974398834126017	0	0	34.31344230340791	-9.843083893654873	0	45.95899372334496	0.8021357613757775	-4.974398834126017	0	0	0.01663159798810826	0.01086462246179471	0.01246130406818141	-15.93214761565804	-13.07500379794545	6.660532073028017	0.02548429839281726	-20.16977965374708	0	0	0	-7.477361424041209	0	60.79895689985806	20.16956930556806	0	0
6.78	0.00353345134710359	0.002884090921234589	-175.6272262619719	0	0.9400000003403366	0	34.31655982815554	-9.843240647912548	0	45.96232451069822	0.8021938945817756	-4.974432195691457	0	0	34.31655982815554	-9.843240647912548	0	45.96232451069822	0.8021938945817756	-4.974432195691457	0	0	0.008188648338389247	0.006280844041890149	0.008520660919110516	-15.15255640192322	-12.76176884969196	6.632480178719349	0.02649395813724565	-20.16555855981732	0	0	0	-7.478467856719056	0	60.80316586206251	20.1653482116551	0	0
6.79	-0.001796109080996888	-0.001697054339519923	-175.6215688164914	0	0.9400000003403366	0	34.32013091299417	-9.843420324709459	0	45.96613589703473	0.8022604158224131	-4.974470433791383	0	0	34.32013091299417	-9.843420324709459	0	45.96613589703473	0.8022604158224131	-4.974470433791383	0	0	-0.0005822444821116659	2.000444709852265e-05	0.004184656857984622	-14.17375567205271	-12.31427126754622	6.420175219118549	0.02538877570505578	-20.16072478907343	0	0	0	-7.479734357508625	0	60.80798728850244	20.16051444093046	0	0
6.8	0.004004209300366122	0.002772761602453273	-175.6246306853405	0	0.9400000003403366	0	34.32325023694116	-9.843577094916443	0	45.96946625044163	0.8023185414546187	-4.974503783625224	0	0	34.32325023694116	-9.843577094916443	0	45.96946625044163	0.8023185414546187	-4.974503783625224	0	0	0.006373641698394139	0.006760094746595643	0.002907632876264393	-13.40908479822082	-11.74088898893827	6.050509280482276	0.02294629959362265	-20.15650175574628	0	0	0	-7.48084108863999	0	60.81219866882855	20.15629140762011	0	0
6.81	0.001161464753307483	-0.0005026013678571856	-175.6227612090279	0	0.9400000003403366	0	34.32665683100608	-9.843748217609411	0	45.97310283341547	0.8023820118010342	-4.974540176818405	0	0	34.32665683100608	-9.843748217609411	0	45.97310283341547	0.8023820118010342	-4.974540176818405	0	0	0.0006728405785789813	0.001730893966562208	0.003367071257917204	-12.66789235943975	-11.15499611490572	5.724885248733143	0.02067607791059202	-20.15188973398752	0	0	0	-7.482049770214313	0	60.81679784996703	20.15167938587971	0	0
6.82	0.01090277455664705	0.01049549936633301	-175.6177283112121	0	0.9400000003403366	0	34.32898801470775	-9.843865066555082	0	45.97559440736831	0.802425497970068	-4.974565012943769	0	0	34.32898801470775	-9.843865066555082	0	45.97559440736831	0.802425497970068	-4.974565012943769	0	0	0.01778180184028981	0.01555063724053176	-0.007922273106518093	-12.19436941293168	-10.7669004036215	5.262782795898071	0.01982096793753167	-20.14873216999071	0	0	0	-7.482877790252352	0	60.81994496427087	20.14852182189546	0	0
6.83	0.01810010757851627	0.01245649515289161	-175.6188585080494	0	0.9400000003403366	0	34.33104770628799	-9.843968037180092	0	45.97779952191414	0.8024639844792764	-4.974586885422196	0	0	34.33104770628799	-9.843968037180092	0	45.97779952191414	0.8024639844792764	-4.974586885422196	0	0	0.02958162043019694	0.02079668798798791	-0.002373498819837483	-11.7368966186536	-10.49297973048096	4.996260936559252	0.01889302866074337	-20.14594059920688	0	0	0	-7.483610440133851	0	60.82272536802088	20.14573025112275	0	0
6.84	0.0001671181734109647	0.000137415709534699	-175.6216002461242	0	0.9400000003403366	0	34.33445878164655	-9.844139138970473	0	45.98144035841312	0.8025275290637105	-4.974623248547058	0	0	34.33445878164655	-9.844139138970473	0	45.98144035841312	0.8025275290637105	-4.974623248547058	0	0	0.000157817335728653	0.001417703425490115	0.001940412292229971	-11.11885820544052	-9.944294255895164	4.404380630590635	0.01736383200348204	-20.14132205755349	0	0	0	-7.484820944691519	0	60.82733047184788	20.14111170948773	0	0
6.85	0.01064213835881303	0.00995714389442711	-175.620814336871	0	0.9400000003403366	0	34.33692941221148	-9.844262779054594	0	45.98408092720371	0.8025736156832317	-4.97464950872353	0	0	34.33692941221148	-9.844262779054594	0	45.98408092720371	0.8025736156832317	-4.97464950872353	0	0	0.01763299201114658	0.01629500976204082	-0.003937819122780813	-10.52282079380726	-9.421630624679141	3.958345204015924	0.01646915116009236	-20.13797513496312	0	0	0	-7.485698757608233	0	60.83066573226363	20.13776478691068	0	0
6.86	0.01390185450325053	0.009844928376621284	-175.6256129517834	0	0.9400000003403366	0	34.33916923337279	-9.844374581983361	0	45.98647868801864	0.8026154645041276	-4.97467323989148	0	0	34.33916923337279	-9.844374581983361	0	45.98647868801864	0.8026154645041276	-4.97467323989148	0	0	0.02526819759578419	0.01753002899624851	0.001896988441386011	-9.991749267655768	-9.109317283533411	3.720614116246005	0.01675217909880211	-20.13493905618899	0	0	0	-7.486495679876294	0	60.83368920326509	20.13472870814861	0	0
6.87	0.007435847592578258	0.005787084180651648	-175.6276123315949	0	0.9400000003403366	0	34.3417269524927	-9.844502345733058	0	45.98921416862456	0.8026632076473252	-4.974700359268954	0	0	34.3417269524927	-9.844502345733058	0	45.98921416862456	0.8026632076473252	-4.974700359268954	0	0	0.01618454278912669	0.009925648750244783	0.002781930728210649	-9.353607785733425	-8.802702805637157	3.435456519399752	0.01637214375128583	-20.13147304430557	0	0	0	-7.487405098489687	0	60.83714187871333	20.13126269627896	0	0
6.88	0.009659307469699199	0.006573092924038888	-175.6281367193591	0	0.9400000003403366	0	34.34442788799828	-9.84463730807154	0	45.9921009298515	0.8027135911354543	-4.974729004697533	0	0	34.34442788799828	-9.84463730807154	0	45.9921009298515	0.8027135911354543	-4.974729004697533	0	0	0.01204620772668172	0.009507679791841811	0.004959235065432726	-8.553252845074557	-8.365671424934211	3.079911098357929	0.01551068790224817	-20.12781361285051	0	0	0	-7.488365024994988	0	60.84078793053719	20.12760326483846	0	0
6.89	0.006784887547529168	0.003785528076063534	-175.6269852967329	0	0.9400000003403366	0	34.34738412983049	-9.844784990721541	0	45.99525965610218	0.8027687213086977	-4.9747603433888	0	0	34.34738412983049	-9.844784990721541	0	45.99525965610218	0.8027687213086977	-4.9747603433888	0	0	0.009159055457892354	0.006743412747230469	0.005523785503859113	-7.635164152387208	-7.810688544049308	2.836413345926646	0.01480480274446436	-20.12380844401493	0	0	0	-7.489415568500982	0	60.84477861732854	20.12359809601882	0	0
6.9	0.005190032773360551	0.003303647548015031	-175.6261986393924	0	0.9400000003403366	0	34.35035031853379	-9.844933024804925	0	45.99842998085925	0.8028240539140662	-4.974791745782444	0	0	34.35035031853379	-9.844933024804925	0	45.99842998085925	0.8028240539140662	-4.974791745782444	0	0	0.005395024947884892	0.004267769064022341	0.004856422677198409	-6.902906280217181	-7.40183198814025	2.584426338567162	0.01454540936518476	-20.11978915737389	0	0	0	-7.490470026797222	0	60.84878263999052	20.11957880939377	0	0
6.91	0.005896519384469381	0.003925772286168101	-175.6262126918544	0	0.9400000003403366	0	34.35325902846458	-9.845078084781543	0	46.00153915005432	0.8028783191535217	-4.974822507991451	0	0	34.35325902846458	-9.845078084781543	0	46.00153915005432	0.8028783191535217	-4.974822507991451	0	0	0.006717291884576456	0.004654092130691175	0.004526863186012955	-6.169406888073833	-6.995094268476357	2.322802109965984	0.01429019407933171	-20.11584741420628	0	0	0	-7.491504247356276	0	60.85270901182028	20.11563706624185	0	0
6.92	0.006908140941673967	0.005925011495568861	-175.6267540128829	0	0.9400000003403366	0	34.35613227667778	-9.845221351318296	0	46.00460931889182	0.8029319037083282	-4.974852883844539	0	0	34.35613227667778	-9.845221351318296	0	46.00460931889182	0.8029319037083282	-4.974852883844539	0	0	0.01300802626365958	0.005583461360343795	0.003691391218600631	-5.107725276551388	-6.537876205213537	1.928494058057178	0.01364432731794373	-20.11195398271065	0	0	0	-7.492525686785291	0	60.85658751550427	20.11174363476169	0	0
6.93	0.001839297911549087	0.0005658728140347416	-175.6238626698959	0	0.9400000003403366	0	34.35939736741042	-9.845384132788407	0	46.00809685168299	0.8029927726383055	-4.974887390659987	0	0	34.35939736741042	-9.845384132788407	0	46.00809685168299	0.8029927726383055	-4.974887390659987	0	0	0.004440095215644044	0.003320374791155269	0.002841076747607959	-4.114975402027552	-5.985283376141239	1.5189620185239	0.01312908373088663	-20.10752990646333	0	0	0	-7.493686209466845	0	60.860994958181	20.10731955853198	0	0
